<svg width="53" height="54" viewBox="0 0 53 54" fill="none" xmlns="http://www.w3.org/2000/svg">
<path fill-rule="evenodd" clip-rule="evenodd" d="M14.5833 12.4167C14.5833 9.32247 15.8125 6.35501 18.0004 4.16709C20.1883 1.97916 23.1558 0.75 26.25 0.75C29.3442 0.75 32.3117 1.97916 34.4996 4.16709C36.6875 6.35501 37.9167 9.32247 37.9167 12.4167C37.9167 15.5109 36.6875 18.4783 34.4996 20.6662C32.3117 22.8542 29.3442 24.0833 26.25 24.0833C23.1558 24.0833 20.1883 22.8542 18.0004 20.6662C15.8125 18.4783 14.5833 15.5109 14.5833 12.4167ZM14.5833 29.9167C10.7156 29.9167 7.00627 31.4531 4.27136 34.188C1.53645 36.9229 0 40.6323 0 44.5C0 46.8206 0.921873 49.0462 2.56282 50.6872C4.20376 52.3281 6.42936 53.25 8.75 53.25H43.75C46.0706 53.25 48.2962 52.3281 49.9372 50.6872C51.5781 49.0462 52.5 46.8206 52.5 44.5C52.5 40.6323 50.9635 36.9229 48.2286 34.188C45.4937 31.4531 41.7844 29.9167 37.9167 29.9167H14.5833Z" fill="#545454"/>
</svg>
